<svg width="21" height="22" fill="none" xmlns="http://www.w3.org/2000/svg"><path fill-rule="evenodd" clip-rule="evenodd" d="m3.715 2.69-.197 2.45c-.04.47.325.86.788.86h15.077c.414 0 .759-.32.788-.74.128-1.77-1.201-3.21-2.944-3.21H5.123a2.743 2.743 0 0 0-.6-1.21A2.6 2.6 0 0 0 2.632 0H.918a.75.75 0 0 0 0 1.5h1.714c.305 0 .59.13.798.35.206.23.305.53.285.84zM9.18 20a2 2 0 1 1-4 0 2 2 0 0 1 4 0zm8 0a2 2 0 1 1-4 0 2 2 0 0 1 4 0zM4.33 8H19.4c.462 0 .816.378.777.824l-.325 4.529C19.744 14.807 18.448 16 16.974 16H6.049c-1.68 0-2.997-1.416-2.86-3.074l.354-4.218A.786.786 0 0 1 4.33 8z" fill="#d9ff5a"/></svg>