<svg width="20" height="18" viewBox="0 0 20 18" fill="none" xmlns="http://www.w3.org/2000/svg">
<path d="M17.612 2.41452L17.2551 2.76462L17.2552 2.76479L17.612 2.41452ZM14.2623 1V1.5V1ZM10.9126 2.41452L11.2694 2.7647L11.2695 2.76462L10.9126 2.41452ZM9.99977 3.34476L9.64288 3.69495L9.99977 4.05866L10.3567 3.69495L9.99977 3.34476ZM9.08699 2.41452L8.7301 2.7647L8.7301 2.7647L9.08699 2.41452ZM2.38751 9.24214L2.74439 8.89195H2.74439L2.38751 9.24214ZM3.30029 10.1724L2.9434 10.5226H2.9434L3.30029 10.1724ZM9.99977 17L9.64288 17.3502L9.99977 17.7139L10.3567 17.3502L9.99977 17ZM16.6992 10.1724L17.0561 10.5226L16.6992 10.1724ZM17.612 9.24214L17.2552 8.89187L17.2551 8.89195L17.612 9.24214ZM17.969 2.06441C17.4832 1.56908 16.9059 1.17563 16.2698 0.907013L15.8807 1.82825C16.3941 2.04504 16.8612 2.36307 17.2551 2.76462L17.969 2.06441ZM16.2698 0.907013C15.6336 0.638389 14.9514 0.5 14.2623 0.5V1.5C14.8174 1.5 15.3674 1.61145 15.8807 1.82825L16.2698 0.907013ZM14.2623 0.5C13.5731 0.5 12.891 0.638389 12.2548 0.907013L12.6438 1.82825C13.1572 1.61145 13.7072 1.5 14.2623 1.5V0.5ZM12.2548 0.907013C11.6187 1.17563 11.0414 1.56908 10.5556 2.06441L11.2695 2.76462C11.6634 2.36307 12.1304 2.04504 12.6438 1.82825L12.2548 0.907013ZM10.5557 2.06433L9.64288 2.99457L10.3567 3.69495L11.2694 2.7647L10.5557 2.06433ZM10.3567 2.99457L9.44387 2.06433L8.7301 2.7647L9.64288 3.69495L10.3567 2.99457ZM9.44387 2.06433C8.46246 1.06414 7.12934 0.500469 5.73725 0.500469V1.50047C6.85795 1.50047 7.9347 1.95409 8.7301 2.7647L9.44387 2.06433ZM5.73725 0.500469C4.34515 0.500469 3.01203 1.06414 2.03062 2.06433L2.74439 2.7647C3.53979 1.95409 4.61655 1.50047 5.73725 1.50047V0.500469ZM2.03062 2.06433C1.04952 3.06419 0.5 4.41832 0.5 5.82833H1.5C1.5 4.67748 1.94868 3.57564 2.74439 2.7647L2.03062 2.06433ZM0.5 5.82833C0.5 7.23834 1.04952 8.59246 2.03062 9.59233L2.74439 8.89195C1.94868 8.08101 1.5 6.97917 1.5 5.82833H0.5ZM2.03062 9.59233L2.9434 10.5226L3.65718 9.82219L2.74439 8.89195L2.03062 9.59233ZM2.9434 10.5226L9.64288 17.3502L10.3567 16.6498L3.65718 9.82219L2.9434 10.5226ZM10.3567 17.3502L17.0561 10.5226L16.3424 9.82219L9.64288 16.6498L10.3567 17.3502ZM17.0561 10.5226L17.9689 9.59233L17.2551 8.89195L16.3424 9.82219L17.0561 10.5226ZM17.9688 9.59241C18.4549 9.09733 18.8399 8.51002 19.1024 7.86427L18.1761 7.48764C17.9623 8.0134 17.6493 8.49048 17.2552 8.89187L17.9688 9.59241ZM19.1024 7.86427C19.365 7.21855 19.5 6.52675 19.5 5.82833H18.5C18.5 6.39799 18.3899 6.96186 18.1761 7.48764L19.1024 7.86427ZM19.5 5.82833C19.5 5.1299 19.365 4.43811 19.1024 3.79238L18.1761 4.16901C18.3899 4.69479 18.5 5.25866 18.5 5.82833H19.5ZM19.1024 3.79238C18.8399 3.14664 18.4549 2.55933 17.9688 2.06424L17.2552 2.76479C17.6493 3.16617 17.9623 3.64325 18.1761 4.16901L19.1024 3.79238Z" fill="#D9FF5A"/>
</svg>
