<svg width="25" height="25" viewBox="0 0 25 25" fill="none" xmlns="http://www.w3.org/2000/svg">
<path d="M21.9444 3H5.05556C4.7756 3 4.50712 3.1109 4.30917 3.30831C4.11121 3.50572 4 3.77346 4 4.05264V6.77898C4 7.32951 4.22483 7.87056 4.61539 8.26004L10.3333 13.9622V21.9475C10.3335 22.1269 10.3796 22.3032 10.4673 22.4598C10.5549 22.6164 10.6812 22.7481 10.8341 22.8424C10.9871 22.9368 11.1616 22.9906 11.3413 22.9989C11.5209 23.0071 11.6997 22.9695 11.8607 22.8896L16.0829 20.7844C16.4408 20.6054 16.6667 20.2412 16.6667 19.8422V13.9622L22.3846 8.26004C22.7752 7.87056 23 7.32951 23 6.77898V4.05264C23 3.77346 22.8888 3.50572 22.6908 3.30831C22.4929 3.1109 22.2244 3 21.9444 3ZM14.8648 12.7822C14.7666 12.8798 14.6887 12.9958 14.6357 13.1235C14.5826 13.2512 14.5554 13.3881 14.5556 13.5264V19.1917L12.4444 20.2443V13.5264C12.4446 13.3881 12.4174 13.2512 12.3643 13.1235C12.3113 12.9958 12.2334 12.8798 12.1352 12.7822L6.11111 6.77898V5.10528H20.8899L20.8921 6.77161L14.8648 12.7822Z" fill="#D9FF5A"/>
</svg>
