<svg width="18" height="19" viewBox="0 0 18 19" fill="none" xmlns="http://www.w3.org/2000/svg">
<g clip-path="url(#clip0_8101_3766)">
<path d="M4.65002 16.5498H1.38471V6.03443H4.65002V16.5498ZM3.01539 4.60005C1.97139 4.60005 1.12427 3.73493 1.12427 2.69093C1.12427 2.18937 1.32351 1.70836 1.67817 1.3537C2.03282 0.999048 2.51384 0.799805 3.01539 0.799805C3.51695 0.799805 3.99797 0.999048 4.35262 1.3537C4.70727 1.70836 4.90652 2.18937 4.90652 2.69093C4.90652 3.73493 4.05939 4.60005 3.01539 4.60005ZM16.8709 16.5498H13.6129V11.4311C13.6129 10.211 13.5881 8.64668 11.9153 8.64668C10.2176 8.64668 9.9572 9.97193 9.9572 11.3433V16.5498H6.69527V6.03443H9.82671V7.4688H9.87227C10.3082 6.64249 11.373 5.77062 12.9615 5.77062C16.2662 5.77062 16.8737 7.94693 16.8737 10.7735V16.5498H16.8709Z" fill="#AE97E8"/>
</g>
<defs>
<clipPath id="clip0_8101_3766">
<rect width="18" height="18" fill="white" transform="translate(-0.000732422 0.799805)"/>
</clipPath>
</defs>
</svg>
