<svg width="16" height="13" viewBox="0 0 16 13" fill="none" xmlns="http://www.w3.org/2000/svg">
<path d="M16.0007 2.22322C15.4123 2.46376 14.7803 2.62629 14.1158 2.69975C14.8014 2.32125 15.3144 1.72555 15.5589 1.02378C14.9147 1.37678 14.2097 1.62525 13.4745 1.7584C12.9801 1.27138 12.3253 0.948578 11.6116 0.840106C10.898 0.731635 10.1655 0.843563 9.5279 1.15851C8.89028 1.47347 8.38321 1.97382 8.0854 2.58189C7.7876 3.18996 7.71572 3.87173 7.88094 4.52135C6.57569 4.46089 5.29881 4.14789 4.13316 3.60269C2.9675 3.05748 1.93914 2.29224 1.1148 1.35663C0.832935 1.80521 0.670864 2.32529 0.670864 2.87918C0.670549 3.37781 0.803645 3.8688 1.05834 4.30859C1.31304 4.74838 1.68146 5.12337 2.13092 5.40029C1.60966 5.38499 1.09991 5.25505 0.644087 5.02128V5.06029C0.644034 5.75963 0.906243 6.43746 1.38622 6.97875C1.8662 7.52004 2.53439 7.89145 3.2774 8.02997C2.79385 8.15071 2.28689 8.16849 1.7948 8.08198C2.00443 8.68373 2.41278 9.20993 2.96268 9.58693C3.51257 9.96392 4.17649 10.1728 4.86147 10.1844C3.69867 11.0266 2.26261 11.4834 0.784314 11.4814C0.522449 11.4815 0.260806 11.4673 0.000732422 11.4391C1.50129 12.3292 3.24804 12.8016 5.032 12.7998C11.0709 12.7998 14.3723 8.18535 14.3723 4.18329C14.3723 4.05327 14.3687 3.92195 14.3624 3.79193C15.0045 3.36349 15.5588 2.83296 15.9993 2.22517L16.0007 2.22322Z" fill="#AE97E8"/>
</svg>
