<svg width="378" height="213" fill="none" xmlns="http://www.w3.org/2000/svg"><g filter="url(#a)"><ellipse cx="188.622" cy="106.729" rx="178" ry="67.5" transform="rotate(-13 188.622 106.729)" fill="#fff" fill-opacity=".19"/><path d="M361.086 66.912c2.01 8.707-.699 18.188-7.563 27.947s-17.821 19.697-32.081 29.231c-28.514 19.065-70.054 36.397-117.861 47.434-47.806 11.037-92.74 13.67-126.726 9.034-16.997-2.319-31.2-6.448-41.648-12.21-10.448-5.762-17.038-13.096-19.048-21.803-2.01-8.707.698-18.188 7.562-27.947 6.864-9.759 17.82-19.696 32.08-29.23 28.515-19.066 70.055-36.398 117.862-47.435 47.806-11.037 92.74-13.67 126.726-9.033 16.997 2.318 31.201 6.447 41.648 12.209 10.448 5.762 17.039 13.097 19.049 21.803z" stroke="#D9FF5A" stroke-width="2"/></g><path d="M366.139 98.07c.312 8.93-4.155 17.72-12.756 25.991-8.6 8.269-21.251 15.934-37.069 22.572-31.628 13.274-75.712 22.361-124.746 24.074-49.034 1.712-93.645-4.278-126.122-15.313-16.242-5.519-29.397-12.283-38.553-19.932-9.156-7.65-14.226-16.107-14.538-25.038-.312-8.93 4.156-17.72 12.756-25.99 8.6-8.27 21.252-15.934 37.07-22.573 31.627-13.274 75.711-22.36 124.745-24.073 49.035-1.712 93.645 4.277 126.122 15.313 16.242 5.519 29.397 12.282 38.553 19.932 9.157 7.65 14.227 16.107 14.538 25.037z" stroke="#D9FF5A" stroke-width="2"/><defs><filter id="a" x="-15.759" y="-.553" width="408.763" height="214.563" filterUnits="userSpaceOnUse" color-interpolation-filters="sRGB"><feFlood flood-opacity="0" result="BackgroundImageFix"/><feGaussianBlur in="BackgroundImageFix" stdDeviation="15.135"/><feComposite in2="SourceAlpha" operator="in" result="effect1_backgroundBlur_8209_5450"/><feBlend in="SourceGraphic" in2="effect1_backgroundBlur_8209_5450" result="shape"/></filter></defs></svg>